<?xml version="1.0" encoding="UTF-8"?>
<svg viewBox="20 15 48 55" width="192" height="192" fill="none" xmlns="http://www.w3.org/2000/svg">
  <!-- Breiteres File mit abgerundeten Ecken -->
  <path
    d="M32 18 Q24 18 24 24 L24 60 Q24 66 32 66 L56 66 Q64 66 64 58 L64 26 Q64 18 56 18 Z"
    fill="#e7f5ff"
    stroke="#339af0"
    stroke-width="2"
  />
  <!-- Abgeknickte Ecke: Vorderseite -->
  <polygon points="56,18 64,18 64,26" fill="#339af0" />
  <!-- Abgeknickte Ecke: "Innenseite" -->
  <polygon points="56,18 64,26 58,26" fill="#d0ebff" />
  <!-- Papierlinien -->
  <rect x="36" y="25" width="16" height="1" fill="#a5d8ff" />
  <rect x="38" y="29" width="12" height="1" fill="#a5d8ff" />
  <rect x="37" y="33" width="14" height="1" fill="#a5d8ff" />
  <!-- Ultra-cute Augen -->
  <ellipse cx="37" cy="46" rx="3.7" ry="4.5" fill="#1864ab" />
  <ellipse cx="51" cy="46" rx="3.7" ry="4.5" fill="#1864ab" />
  <!-- Extra Glanzpunkte -->
  <ellipse cx="36.2" cy="44.5" rx="0.85" ry="1.2" fill="#fff" opacity="0.9" />
  <ellipse cx="50.2" cy="44.5" rx="0.85" ry="1.2" fill="#fff" opacity="0.9" />
  <ellipse cx="38" cy="47.3" rx="0.4" ry="0.6" fill="#fff" opacity="0.5" />
  <ellipse cx="52" cy="47.3" rx="0.4" ry="0.6" fill="#fff" opacity="0.5" />
  <!-- Sehr runder, süßer Smiley-Mund -->
  <path
    d="M39,53 Q44,60 49,53"
    stroke="#339af0"
    stroke-width="2.2"
    fill="none"
    stroke-linecap="round"
  />
</svg>
